<?xml version="1.0" standalone="no"?><!DOCTYPE svg PUBLIC "-//W3C//DTD SVG 1.1//EN" "http://www.w3.org/Graphics/SVG/1.1/DTD/svg11.dtd"><svg t="1554278190089" class="icon" style="" viewBox="0 0 1024 1024" version="1.1" xmlns="http://www.w3.org/2000/svg" p-id="1555" xmlns:xlink="http://www.w3.org/1999/xlink" width="200" height="200"><defs><style type="text/css"></style></defs><path d="M837.5 65.4H186.4c-58 0-105.2 47.2-105.2 105.2v757.9c0 11.6 6.7 22.2 17.2 27.1 10.5 5 22.9 3.4 31.9-4l129.9-107.1 114 97.2c11.9 10.2 29.6 9.5 40.7-1.6l97.2-97.2L614.2 945c11.7 11.7 30.7 11.7 42.4 0l104-104 133.1 110.5c5.5 4.6 12.3 6.9 19.2 6.9 4.3 0 8.7-0.9 12.7-2.8 10.5-4.9 17.3-15.5 17.3-27.2V170.6c-0.2-58-47.4-105.2-105.4-105.2z m45.2 799.2l-104.9-87.2c-11.9-9.9-29.4-9.1-40.4 1.9L635.3 881.4 533.2 779.3c-5.9-5.9-13.5-8.8-21.2-8.8s-15.4 2.9-21.2 8.8L392 878.1l-112-95.5c-11.1-9.4-27.3-9.6-38.6-0.3l-100.2 82.6V170.6c0-24.9 20.3-45.2 45.2-45.2h651.1c24.9 0 45.2 20.3 45.2 45.2v694z" p-id="1556"></path><path d="M721.2 325.3H302.8c-16.6 0-30 13.4-30 30s13.4 30 30 30h418.4c16.6 0 30-13.4 30-30s-13.4-30-30-30zM512 548H302.8c-16.6 0-30 13.4-30 30s13.4 30 30 30H512c16.6 0 30-13.4 30-30s-13.4-30-30-30z" p-id="1557"></path></svg>