<?xml version="1.0" standalone="no"?><!DOCTYPE svg PUBLIC "-//W3C//DTD SVG 1.1//EN" "http://www.w3.org/Graphics/SVG/1.1/DTD/svg11.dtd"><svg t="1554278186160" class="icon" style="" viewBox="0 0 1024 1024" version="1.1" xmlns="http://www.w3.org/2000/svg" p-id="1441" xmlns:xlink="http://www.w3.org/1999/xlink" width="200" height="200"><defs><style type="text/css"></style></defs><path d="M844.672 55.68H177.92c-59.392 0-107.776 48.384-107.776 107.776V939.52c0 11.904 6.912 22.784 17.664 27.776 10.752 5.12 23.424 3.456 32.64-4.096L253.44 853.504l116.736 99.584c12.16 10.496 30.336 9.728 41.728-1.664l99.584-99.584 104.576 104.576c12.032 12.032 31.488 12.032 43.392 0l106.496-106.496 136.32 113.152c5.632 4.736 12.544 7.04 19.712 7.04 4.352 0 8.96-0.896 13.056-2.816 10.752-4.992 17.664-15.872 17.664-27.904V163.456c-0.256-59.392-48.64-107.776-108.032-107.776zM511.36 611.328H297.216c-17.024 0-30.72-13.696-30.72-30.72s13.696-30.72 30.72-30.72h214.272c17.024 0 30.72 13.696 30.72 30.72-0.128 17.024-13.824 30.72-30.848 30.72z m214.272-228.096H297.216c-17.024 0-30.72-13.696-30.72-30.72s13.696-30.72 30.72-30.72h428.416c17.024 0 30.72 13.696 30.72 30.72s-13.696 30.72-30.72 30.72z" p-id="1442"></path></svg>