<?xml version="1.0" standalone="no"?><!DOCTYPE svg PUBLIC "-//W3C//DTD SVG 1.1//EN" "http://www.w3.org/Graphics/SVG/1.1/DTD/svg11.dtd"><svg t="1554278195908" class="icon" style="" viewBox="0 0 1024 1024" version="1.1" xmlns="http://www.w3.org/2000/svg" p-id="1784" xmlns:xlink="http://www.w3.org/1999/xlink" width="200" height="200"><defs><style type="text/css"></style></defs><path d="M512 1024a512 512 0 1 1 512-512 512.597333 512.597333 0 0 1-512 512z m0-951.978667A439.765333 439.765333 0 0 0 72.021333 512a439.850667 439.850667 0 0 0 750.933334 311.125333A440.234667 440.234667 0 0 0 683.221333 106.666667 435.968 435.968 0 0 0 512 72.021333z" p-id="1785"></path><path d="M701.824 436.992h-167.04a2.944 2.944 0 0 0 2.133333-0.981333l118.186667-117.845334a35.84 35.84 0 1 0-50.773333-50.56L511.914667 360.106667 419.029333 267.306667a36.224 36.224 0 0 0-51.2 51.2l118.186667 118.101333c0.682667 0.682667 1.408 1.706667 2.090667 1.706667H321.450667a34.645333 34.645333 0 0 0-34.133334 34.517333v3.285333a34.133333 34.133333 0 0 0 34.133334 33.792h154.581333v64H353.536a34.517333 34.517333 0 0 0-33.493333 35.114667v4.053333a32.64 32.64 0 0 0 33.493333 32.896h122.496v149.333334a36.010667 36.010667 0 0 0 72.021333 0v-149.333334h121.770667a34.133333 34.133333 0 0 0 35.2-32.896v-4.010666a35.968 35.968 0 0 0-35.2-35.114667h-121.813333v-64h153.6a34.133333 34.133333 0 0 0 35.2-33.109333v-3.968a36.693333 36.693333 0 0 0-34.986667-35.882667z" p-id="1786"></path></svg>