<?xml version="1.0" standalone="no"?><!DOCTYPE svg PUBLIC "-//W3C//DTD SVG 1.1//EN" "http://www.w3.org/Graphics/SVG/1.1/DTD/svg11.dtd"><svg t="1554278193225" class="icon" style="" viewBox="0 0 1024 1024" version="1.1" xmlns="http://www.w3.org/2000/svg" p-id="1670" xmlns:xlink="http://www.w3.org/1999/xlink" width="200" height="200"><defs><style type="text/css"></style></defs><path d="M512 1024a512 512 0 1 1 512-512 512.597333 512.597333 0 0 1-512 512zM353.493333 573.994667a34.389333 34.389333 0 0 0-33.536 35.114666v4.010667a32.512 32.512 0 0 0 33.536 32.896h122.496v149.333333a36.010667 36.010667 0 1 0 72.021334 0v-149.333333H669.866667a34.133333 34.133333 0 0 0 35.157333-32.896v-4.010667a36.053333 36.053333 0 0 0-35.157333-35.114666h-121.856v-64h153.6a34.133333 34.133333 0 0 0 35.2-33.109334v-4.010666a36.48 36.48 0 0 0-35.2-35.925334h-166.4a3.754667 3.754667 0 0 0 1.664-0.981333l118.058666-117.802667a35.797333 35.797333 0 0 0 10.624-25.6 35.925333 35.925333 0 0 0-35.84-35.712 35.925333 35.925333 0 0 0-25.6 10.624L511.701333 360.106667 418.901333 267.306667a35.626667 35.626667 0 0 0-25.386666-10.453334 36.352 36.352 0 0 0-36.352 36.352 35.712 35.712 0 0 0 10.538666 25.6l118.186667 118.058667 0.426667 0.469333c0.554667 0.597333 1.109333 1.237333 1.621333 1.237334h-166.4a34.858667 34.858667 0 0 0-34.133333 34.474666v3.285334a34.133333 34.133333 0 0 0 34.133333 33.792h154.538667v64z" p-id="1671"></path></svg>