<?xml version="1.0" standalone="no"?><!DOCTYPE svg PUBLIC "-//W3C//DTD SVG 1.1//EN" "http://www.w3.org/Graphics/SVG/1.1/DTD/svg11.dtd"><svg t="1554278201448" class="icon" style="" viewBox="0 0 1114 1024" version="1.1" xmlns="http://www.w3.org/2000/svg" p-id="2013" xmlns:xlink="http://www.w3.org/1999/xlink" width="217.578125" height="200"><defs><style type="text/css"></style></defs><path d="M349.056 604.928v187.52c0 10.112-8.192 18.304-18.304 18.304h-82.944c-10.112 0-18.304-8.192-18.304-18.304V604.928c0-10.112 8.192-18.304 18.304-18.304h82.944c10.112 0 18.304 8.192 18.304 18.304z m179.2-298.624v486.144c0 10.112-8.192 18.304-18.304 18.304h-82.944c-10.112 0-18.304-8.192-18.304-18.304V306.304c0-10.112 8.192-18.304 18.304-18.304h82.944c10.112 0 18.304 8.192 18.304 18.304z m179.2 149.248V792.32c0 10.112-8.192 18.304-18.304 18.304h-82.944c-10.112 0-18.304-8.192-18.304-18.304V455.552c0-10.112 8.192-18.304 18.304-18.304h82.944c10.112 0.128 18.304 8.32 18.304 18.304z m179.2-224V792.32c0 10.112-8.192 18.304-18.304 18.304h-82.944c-10.112 0-18.304-8.192-18.304-18.304V231.552c0-10.112 8.192-18.304 18.304-18.304h82.944c10.112 0.128 18.304 8.32 18.304 18.304z m59.648 635.136V157.312c0-4.992-1.536-9.472-4.48-13.184-2.944-3.712-6.4-5.504-10.496-5.504H184.704c-4.096 0-7.552 1.792-10.496 5.504-2.944 3.712-4.48 8.064-4.48 13.184v709.376c0 4.992 1.536 9.472 4.48 13.184 2.944 3.712 6.4 5.504 10.496 5.504h746.624c4.096 0 7.552-1.792 10.496-5.504 3.072-3.84 4.48-8.192 4.48-13.184zM1006.08 157.312v709.376c0 25.6-7.296 47.616-21.888 65.92-14.592 18.304-32.256 27.392-52.736 27.392H184.704c-20.48 0-38.144-9.088-52.736-27.392C117.376 914.304 110.08 892.288 110.08 866.688V157.312c0-25.728 7.296-47.616 21.888-65.92C146.688 73.088 164.224 64 184.704 64h746.624c20.48 0 38.144 9.088 52.736 27.392 14.72 18.304 22.016 40.32 22.016 65.92z m0 0" p-id="2014"></path></svg>