<?xml version="1.0" standalone="no"?><!DOCTYPE svg PUBLIC "-//W3C//DTD SVG 1.1//EN" "http://www.w3.org/Graphics/SVG/1.1/DTD/svg11.dtd"><svg t="1554278198910" class="icon" style="" viewBox="0 0 1024 1024" version="1.1" xmlns="http://www.w3.org/2000/svg" p-id="1899" xmlns:xlink="http://www.w3.org/1999/xlink" width="200" height="200"><defs><style type="text/css"></style></defs><path d="M938.112 91.392C923.392 73.088 905.856 64 885.376 64H138.624c-20.48 0-38.144 9.088-52.736 27.392C71.296 109.696 64 131.712 64 157.312v709.376c0 25.6 7.296 47.616 21.888 65.92 14.592 18.304 32.256 27.392 52.736 27.392h746.624c20.48 0 38.144-9.088 52.736-27.392 14.592-18.304 21.888-40.192 21.888-65.92V157.312c0.128-25.6-7.168-47.616-21.76-65.92zM288.256 810.624h-90.112c-8.064 0-14.592-8.192-14.592-18.304V604.928c0-10.112 6.528-18.304 14.592-18.304h90.112c8.064 0 14.592 8.192 14.592 18.304V792.32c0.128 10.112-6.528 18.304-14.592 18.304z m179.2 0h-90.112c-8.064 0-14.592-8.192-14.592-18.304V306.304c0-10.112 6.528-18.304 14.592-18.304h90.112c8.064 0 14.592 8.192 14.592 18.304V792.32c0.128 10.112-6.528 18.304-14.592 18.304z m179.2 0h-90.112c-8.064 0-14.592-8.192-14.592-18.304V455.68c0-10.112 6.528-18.304 14.592-18.304h90.112c8.064 0 14.592 8.192 14.592 18.304v336.64c0.128 10.112-6.528 18.304-14.592 18.304z m179.2 0h-90.112c-8.064 0-14.592-8.192-14.592-18.304V231.68c0-10.112 6.528-18.304 14.592-18.304h90.112c8.064 0 14.592 8.192 14.592 18.304v560.64c0.128 10.112-6.528 18.304-14.592 18.304z" p-id="1900"></path></svg>