<?xml version="1.0" standalone="no"?><!DOCTYPE svg PUBLIC "-//W3C//DTD SVG 1.1//EN" "http://www.w3.org/Graphics/SVG/1.1/DTD/svg11.dtd"><svg t="1554278204331" class="icon" style="" viewBox="0 0 1024 1024" version="1.1" xmlns="http://www.w3.org/2000/svg" p-id="2127" xmlns:xlink="http://www.w3.org/1999/xlink" width="200" height="200"><defs><style type="text/css"></style></defs><path d="M815.104 641.024c64.512 37.248 99.584 84.992 99.584 146.816 0 66.688-52.992 115.072-141.568 146.816-69.888 23.68-164.096 36.736-262.144 36.736-95.104 0-190.208-13.44-262.144-36.736C160.896 901.76 107.392 853.76 107.392 787.84c0-53.632 27.52-97.152 78.592-131.072 33.792-27.776 77.568-48.256 141.568-73.344 12.928-3.584 16.768-4.864 41.984-15.744 0 1.28 0.768 0.64 0 0 5.12-4.096 8.704-8.832 10.496-15.744 4.736-4.736 4.992-7.04 5.248-10.496-73.856-72.32-107.136-135.04-104.832-225.408-2.304-150.656 99.968-262.144 230.656-262.144 132.48 0 233.472 111.232 235.904 262.144-2.432 55.936-23.808 108.16-62.976 162.56-10.24 18.56-43.008 61.44-41.984 62.976-3.84 2.432-3.84 8.192 0 15.744 2.048 5.504 4.48 9.6 5.248 10.496 85.888 30.208 128.512 47.232 167.808 73.216z m-193.92-5.248c0.128 0.128 0 0 0 0z m-47.232-52.352" p-id="2128"></path></svg>