<?xml version="1.0" standalone="no"?><!DOCTYPE svg PUBLIC "-//W3C//DTD SVG 1.1//EN" "http://www.w3.org/Graphics/SVG/1.1/DTD/svg11.dtd"><svg t="1554278206670" class="icon" style="" viewBox="0 0 1024 1024" version="1.1" xmlns="http://www.w3.org/2000/svg" p-id="2241" xmlns:xlink="http://www.w3.org/1999/xlink" width="200" height="200"><defs><style type="text/css"></style></defs><path d="M808.96 640c63.017 36.424 97.28 83.02 97.28 143.36 0 65.106-51.763 112.338-138.24 143.36-68.23 23.091-160.246 35.84-256 35.84-92.918 0-185.784-13.158-256-35.84-85.934-32.077-138.24-79.048-138.24-143.36 0-52.419 26.88-94.935 76.8-128 32.983-27.126 75.735-47.11 138.24-71.68 12.631-3.446 16.374-4.813 40.96-15.36 0.02 1.29 0.717 0.594 0 0 5.038-4.004 8.5-8.637 10.24-15.36 4.572-4.66 4.874-6.932 5.12-10.24-72.161-70.62-104.627-131.84-102.4-220.16-2.227-147.103 97.684-256 225.28-256 129.408 0 228.024 108.677 230.4 256-2.376 54.671-23.255 105.682-61.44 158.72-10.045 18.115-42.035 59.986-40.96 61.44-3.779 2.376-3.697 8.038 0 15.36 1.971 5.366 4.403 9.375 5.12 10.24 83.743 29.686 125.41 46.275 163.84 71.68z m-189.44-5.12c0.092 0.03 0.051 0.015 0 0z m-46.08-51.2c-11.105-27.735-11.566-58.097 5.12-81.92 3-4.024 34.345-45.076 46.08-61.44 28.099-42.414 44.134-81.613 46.08-117.76-1.946-112.901-71.373-189.44-158.72-189.44-90.844 0-161.382 76.908-163.84 189.44 2.458 65.475 26.931 111.39 87.04 174.08 25.037 26.143 23.572 58.808 5.12 87.04-9.196 21.647-27.407 41.021-40.96 46.08-28.508 10.21-31.97 11.469-40.96 15.36-122.189 45.046-174.08 82.734-174.08 133.12 0 61.875 144.722 112.64 327.68 112.64 181.745 0 322.56-49.27 322.56-112.64 0-30.75-19.86-57.764-61.44-81.92-36.454-23.424-76.227-39.02-158.72-66.56-14.372-4.521-29.972-24.346-40.96-46.08z" p-id="2242"></path></svg>