<?xml version="1.0" standalone="no"?><!DOCTYPE svg PUBLIC "-//W3C//DTD SVG 1.1//EN" "http://www.w3.org/Graphics/SVG/1.1/DTD/svg11.dtd"><svg t="1555916288085" class="icon" style="" viewBox="0 0 1024 1024" version="1.1" xmlns="http://www.w3.org/2000/svg" p-id="1263" xmlns:xlink="http://www.w3.org/1999/xlink" width="200" height="200"><defs><style type="text/css"></style></defs><path d="M256 494.934h477.867l119.465 290.134V1024H136.534V785.068z" fill="#F3F3F3" p-id="1264"></path><path d="M256 494.934h477.867v221.867H256z" fill="#ECECEC" p-id="1265"></path><path d="M136.534 1024V785.068H409.6a85.333 85.333 0 0 0 170.667 0h273.065V1024H136.534z" fill="#FBFBFB" p-id="1266"></path><path d="M1006.932 494.934h-17.066v17.067a17.067 17.067 0 0 1-34.134 0v-17.067h-17.066a17.067 17.067 0 0 1 0-34.133h17.066v-17.067a17.067 17.067 0 0 1 34.134 0v17.067h17.066a17.067 17.067 0 0 1 0 34.133z m-204.8-256l153.6-170.665-51.2 221.866z m-136.532-51.2L955.732 68.27 767.999 238.935z m5.12 217.942a7.612 7.612 0 0 1 0.256 10.41c-6.827 7.34-14.012 14.336-21.436 21.163a7.049 7.049 0 0 1-9.915-0.683 7.868 7.868 0 0 1 0.392-10.752c7.117-6.314 13.978-13.14 20.582-20.138a6.98 6.98 0 0 1 10.12 0z m-68.762 66.218a7.202 7.202 0 0 1-7.407 0 7.629 7.629 0 0 1-3.413-6.826 7.39 7.39 0 0 1 4.045-6.315 220.16 220.16 0 0 0 23.757-15.53 7.27 7.27 0 0 1 9.847 2.047 7.663 7.663 0 0 1-1.416 10.24 219.75 219.75 0 0 1-25.447 16.384z m-30.054-27.306a7.373 7.373 0 0 1-7.953-6.656 49.493 49.493 0 0 0-8.073-24.747 7.646 7.646 0 0 1 1.81-10.41 7.066 7.066 0 0 1 10.086 1.877 63.812 63.812 0 0 1 10.632 32.256 7.424 7.424 0 0 1-6.536 7.68z m-35.84-48.81a79.07 79.07 0 0 0-25.327-8.534 7.083 7.083 0 0 1-5.734-4.608 7.765 7.765 0 0 1 1.109-7.51 7.51 7.51 0 0 1 6.827-2.73 97.62 97.62 0 0 1 29.85 10.07 7.492 7.492 0 0 1 4.146 6.314 7.612 7.612 0 0 1-3.413 6.826 6.827 6.827 0 0 1-7.492 0.171z m-16.555 85.844a7.134 7.134 0 0 1-8.908 5.12 94.208 94.208 0 0 1-28.28-13.653 7.714 7.714 0 0 1-1.707-10.24 7.049 7.049 0 0 1 9.78-2.219 85.692 85.692 0 0 0 24.183 11.776 7.441 7.441 0 0 1 4.898 9.216z m-36.215-94.208a44.05 44.05 0 0 0-22.733 10.411 7.543 7.543 0 0 1-7.03 1.707 6.434 6.434 0 0 1-3.21-2.048 7.663 7.663 0 0 1 0.273-10.582 58.146 58.146 0 0 1 30.174-14.336 9.199 9.199 0 0 1 3.738 0.342 7.748 7.748 0 0 1 4.335 9.728 7.287 7.287 0 0 1-5.58 4.778zM401.067 85.335a42.667 42.667 0 1 1 42.666-42.666 42.667 42.667 0 0 1-42.666 42.666z m0-68.266a25.6 25.6 0 1 0 25.6 25.6 25.6 25.6 0 0 0-25.6-25.6z m57.31 434.175a77.227 77.227 0 0 1-16.606-28.502 7.629 7.629 0 0 1 1.706-7.338 6.707 6.707 0 0 1 6.946-2.048 7.066 7.066 0 0 1 5.223 5.12 63.25 63.25 0 0 0 13.534 22.698 7.68 7.68 0 0 1-0.598 10.582 6.963 6.963 0 0 1-10.205-0.512z m222.856-57.686a7.765 7.765 0 0 1-1.024-10.41q9.216-11.264 17.8-23.04a7.031 7.031 0 0 1 9.985-1.366 7.868 7.868 0 0 1 1.587 10.411c-5.888 8.021-11.947 16.043-18.33 23.723a7.014 7.014 0 0 1-10.018 0.682z m39.253-46.42a7.168 7.168 0 0 1-6.16-4.268 7.765 7.765 0 0 1 0.682-7.68q7.953-12.287 15.36-25.087a7.134 7.134 0 0 1 9.932-2.56 7.663 7.663 0 0 1 2.492 10.24c-5.017 8.704-10.24 17.408-15.701 25.77a7.066 7.066 0 0 1-6.605 3.584z m26.64-52.053a7.731 7.731 0 0 1-2.935-10.24c2.8-5.291 5.53-10.752 8.175-16.214a7.031 7.031 0 0 1 9.148-3.242 7.697 7.697 0 0 1 3.806 9.898c-2.714 5.632-5.513 11.264-8.38 16.726a7.236 7.236 0 0 1-9.814 3.072z m72.073-22.016l-34.133 51.2v-68.267zM551.014 492.033a0.58 0.58 0 0 1 0.188-0.34l0.956-2.39c-3.413 0.511-6.827 1.023-10.24 1.194a7.526 7.526 0 0 1-0.734-15.019h0.102a113.033 113.033 0 0 0 16.913-2.389c0.854-2.73 1.707-5.46 2.458-8.192a7.305 7.305 0 0 1 8.96-5.29 7.646 7.646 0 0 1 5.12 8.874c-0.24 1.024-0.597 1.877-0.853 2.901 0.443 0.342 0.973 0.342 1.365 0.683a7.885 7.885 0 0 1 0.46 10.752 6.827 6.827 0 0 1-3.412 2.048c-0.956 0.341-1.946 0.512-2.92 0.853-1.16 3.072-2.456 6.144-3.805 9.216h168.295l118.595 290.134h0.87V1024H136.534V785.068h0.87L256 494.934h294.945a7.22 7.22 0 0 1 0.068-2.9z m182.853 45.568v179.2l27.903 68.267h71.082zM153.6 967.34v39.594h682.665v-204.8h-256a85.333 85.333 0 0 1-170.666 0h-256V967.34zM256 537.601l-98.987 247.467h71.083L256 716.8V537.6z m-10.24 247.467h180.906v17.065a68.267 68.267 0 0 0 136.533 0v-17.065h180.906L716.8 716.8H273.068z m27.307-85.334H716.8V512H273.068v187.733zM529.63 549.718a7.1 7.1 0 0 1-10.24 0.512 7.68 7.68 0 0 1-0.41-10.58 223.283 223.283 0 0 0 17.698-22.7 7.031 7.031 0 0 1 9.865-1.365 7.629 7.629 0 0 1 1.946 10.07 223.095 223.095 0 0 1-18.86 24.063z m-44.015 41.131a7.083 7.083 0 0 1-9.899-1.536 7.834 7.834 0 0 1 1.11-10.41 339.75 339.75 0 0 0 21.93-18.774 7.117 7.117 0 0 1 10.24 0.683 7.697 7.697 0 0 1-0.563 10.581q-11.042 10.24-22.818 19.456z m-48.828 34.133a6.98 6.98 0 0 1-9.762-2.73 7.765 7.765 0 0 1 2.304-10.24q12.271-7.424 24.166-15.872a7.185 7.185 0 0 1 10.053 2.048 7.85 7.85 0 0 1-1.98 10.58c-8.124 5.633-16.384 10.924-24.78 16.214z m-51.37 29.014a7.031 7.031 0 0 1-9.575-3.243 7.8 7.8 0 0 1 3.09-10.24c8.533-4.267 17.066-8.875 25.463-13.653a7.083 7.083 0 0 1 9.66 3.072A7.646 7.646 0 0 1 411.34 640c-8.568 4.779-17.203 9.557-25.924 13.995zM25.601 256.002a25.6 25.6 0 1 1 25.6-25.6 25.6 25.6 0 0 1-25.6 25.6z" fill="#D5D5D5" p-id="1267"></path></svg>