<?xml version="1.0" standalone="no"?><!DOCTYPE svg PUBLIC "-//W3C//DTD SVG 1.1//EN" "http://www.w3.org/Graphics/SVG/1.1/DTD/svg11.dtd"><svg t="1554708825515" class="icon" style="" viewBox="0 0 1024 1024" version="1.1" xmlns="http://www.w3.org/2000/svg" p-id="3950" xmlns:xlink="http://www.w3.org/1999/xlink" width="200" height="200"><defs><style type="text/css"></style></defs><path d="M890.6752 0H133.3248A133.3504 133.3504 0 0 0 0 133.3248v757.3504A133.3504 133.3504 0 0 0 133.3248 1024h757.3504A133.3248 133.3248 0 0 0 1024 890.6752V133.3248A133.3248 133.3248 0 0 0 890.6752 0zM518.1056 779.264a412.16 412.16 0 0 1-124.0192-19.0976l-87.68 52.4032a22.272 22.272 0 0 1-22.3104-22.208l21.952-71.0272c-81.0496-51.7632-133.3632-132.3264-133.3632-223.0528 0-156.2752 154.6368-282.9696 345.408-282.9696 116.3904 0 219.1232 47.36 281.7152 119.616L451.2512 490.7264a55.04 55.04 0 0 1-33.4336 0c-18.4576-9.1776-39.5776-42.8032-55.7056-55.4752a16.7552 16.7552 0 0 0-22.272 0s-6.08 6.0416 0 22.1824a1167.9232 1167.9232 0 0 0 55.7056 122.0736c9.344 17.1264 39.3472 14.4768 44.5568 11.0848 89.0624-57.6 310.6816-190.1952 379.968-231.5392a242.8928 242.8928 0 0 1 43.4176 137.2288c0 156.288-154.6368 282.9824-345.3824 282.9824z" fill="#09CA14" p-id="3951"></path></svg>