<?xml version="1.0" standalone="no"?><!DOCTYPE svg PUBLIC "-//W3C//DTD SVG 1.1//EN" "http://www.w3.org/Graphics/SVG/1.1/DTD/svg11.dtd"><svg t="1554714437928" class="icon" style="" viewBox="0 0 1024 1024" version="1.1" xmlns="http://www.w3.org/2000/svg" p-id="1406" xmlns:xlink="http://www.w3.org/1999/xlink" width="200" height="200"><defs><style type="text/css"></style></defs><path d="M817.593004 650.406496c34.194628 0 61.90331 29.768395 61.903311 66.437477 0 36.666084-27.709681 66.433479-61.903311 66.433479H566.301062V957.561524c0 36.666084-27.709681 66.438476-61.852342 66.438476-34.194628 0-61.899313-29.772392-61.899313-66.438476V783.277452H189.635478c-34.19163 0-61.902311-29.766396-61.902311-66.433479 0-36.668082 27.71168-66.437477 61.902311-66.437477h252.914928v-84.294316H189.635478c-34.19163 0-61.902311-29.714428-61.902311-66.382511 0-36.666084 27.71168-66.490443 61.902311-66.490444h170.966146L185.560025 99.636727c-17.101312-31.823111-6.931668-72.390756 22.645846-90.7193 29.623485-18.33554 67.452842-7.483323 84.547158 24.232854l210.762274 400.089944h10.663335l210.758276-400.089944c17.093317-31.715178 54.925671-42.572392 84.502187-24.232854 29.624485 18.328545 39.794129 58.89619 22.697813 90.7193L657.090319 433.239225h160.503685c34.194628 0 61.90331 29.822361 61.90331 66.490444 0 36.664085-27.709681 66.382511-61.90331 66.382511h-251.292942v84.294316h251.291942z" p-id="1407"></path></svg>