<?xml version="1.0" standalone="no"?><!DOCTYPE svg PUBLIC "-//W3C//DTD SVG 1.1//EN" "http://www.w3.org/Graphics/SVG/1.1/DTD/svg11.dtd"><svg t="1555294364846" class="icon" style="" viewBox="0 0 1024 1024" version="1.1" xmlns="http://www.w3.org/2000/svg" p-id="1418" xmlns:xlink="http://www.w3.org/1999/xlink" width="200" height="200"><defs><style type="text/css"></style></defs><path d="M522.054 45.646c-257.024 0-465.455 208.43-465.455 465.454s208.43 465.455 465.455 465.455S987.508 768.125 987.508 511.1 779.078 45.646 522.054 45.646z m169.705 592.616a31 31 0 1 1-44.063 43.691l-125.86-127.007L394.8 680.836a31.03 31.03 0 1 1-43.691-44.063l127.069-125.89-125.89-127.007a31 31 0 1 1 44.063-43.69l125.89 127.037 127.07-125.89A31 31 0 1 1 693 385.396L565.93 511.317 691.76 638.262z" fill="#F23C3C" p-id="1419"></path></svg>