<?xml version="1.0" standalone="no"?><!DOCTYPE svg PUBLIC "-//W3C//DTD SVG 1.1//EN" "http://www.w3.org/Graphics/SVG/1.1/DTD/svg11.dtd"><svg t="1555294367002" class="icon" style="" viewBox="0 0 1024 1024" version="1.1" xmlns="http://www.w3.org/2000/svg" p-id="1542" xmlns:xlink="http://www.w3.org/1999/xlink" width="200" height="200"><defs><style type="text/css"></style></defs><path d="M988.16 517.877c0 257.103-213.18 470.283-482.037 470.283-257.103 0-470.283-213.18-470.283-470.283C35.84 249.02 249.02 35.84 506.123 35.84c268.857 0 482.037 213.18 482.037 482.037z m-458.035 38.155l-13.181-325.103a5.94 5.94 0 0 0-5.905-5.649h-39.851c-3.135 0-5.774 2.532-5.905 5.65L450.61 592.821a10.809 10.809 0 0 0 4.324 9.176 11.269 11.269 0 0 0 4.926 4.54l238.934 113.988c2.861 1.366 6.417 0.245 7.987-2.48l14.785-25.606a6.24 6.24 0 0 0-1.905-8.152L530.125 556.032z" fill="#2CD7AA" p-id="1543"></path></svg>