<?xml version="1.0" standalone="no"?><!DOCTYPE svg PUBLIC "-//W3C//DTD SVG 1.1//EN" "http://www.w3.org/Graphics/SVG/1.1/DTD/svg11.dtd"><svg t="1556156344290" class="icon" style="" viewBox="0 0 1024 1024" version="1.1" xmlns="http://www.w3.org/2000/svg" p-id="1295" xmlns:xlink="http://www.w3.org/1999/xlink" width="200" height="200"><defs><style type="text/css"></style></defs><path d="M1011.413 1013.615l2.275-2.276c12.514-12.513 12.514-34.128 0-47.78l-176.33-175.192c-12.514-12.514-34.129-12.514-47.78 0l-2.275 2.275c-12.514 12.514-12.514 34.129 0 47.78l176.33 176.33c13.651 12.514 35.266 12.514 47.78-1.137z" fill="#bfbfbf" p-id="1296"></path><path d="M483.56 0C216.22 0 0.073 216.147 0.073 483.486S216.22 966.972 483.56 966.972s483.486-216.146 483.486-483.486S750.899 0 483.56 0z m0 910.092c-235.487 0-426.606-191.12-426.606-426.606S248.074 56.881 483.56 56.881 910.165 248 910.165 483.486 719.045 910.092 483.56 910.092z" fill="#bfbfbf" p-id="1297"></path><path d="M668.99 477.798a67.12 67.12 0 1 0 134.24 0 67.12 67.12 0 1 0-134.24 0zM422.128 477.798a67.12 67.12 0 1 0 134.239 0 67.12 67.12 0 1 0-134.239 0zM175.266 477.798a67.12 67.12 0 1 0 134.239 0 67.12 67.12 0 1 0-134.239 0z" fill="#ffbb96" p-id="1298"></path></svg>
