<?xml version="1.0" standalone="no"?><!DOCTYPE svg PUBLIC "-//W3C//DTD SVG 1.1//EN" "http://www.w3.org/Graphics/SVG/1.1/DTD/svg11.dtd"><svg t="1555307661544" class="icon" style="" viewBox="0 0 1024 1024" version="1.1" xmlns="http://www.w3.org/2000/svg" p-id="1230" xmlns:xlink="http://www.w3.org/1999/xlink" width="200" height="200"><defs><style type="text/css"></style></defs><path d="M512.008 0C229.243 0 0 229.243 0 512.008S229.243 1024 512.008 1024c24.278 0 48.124-1.8 71.514-5.07a512.558 512.558 0 0 0 56.193-11.103c179.184-46.011 320.461-186.511 367.444-365.315 0.862-3.22 1.614-6.49 2.391-9.718a512.05 512.05 0 0 0 14.458-120.777C1024.017 229.243 794.774 0 512.008 0z m317.209 528.689A16.689 16.689 0 0 1 812.527 512c0-165.985-134.559-300.52-300.519-300.52s-300.51 134.543-300.51 300.528c0 165.969 134.542 300.511 300.51 300.511a300.13 300.13 0 0 0 249.92-133.553h-66.333c-4.402 0-8.661-1.767-11.788-4.902s-4.867-7.376-4.85-11.796c0-9.227 7.563-16.706 16.638-16.706h100.278c4.588 0 8.746 1.85 11.754 4.85l0.017 0.085c3 3.034 4.884 7.183 4.884 11.72v100.26a16.647 16.647 0 0 1-16.706 16.656 16.748 16.748 0 0 1-16.706-16.655v-50.075A333.466 333.466 0 0 1 512 845.906c-184.415 0-333.897-149.491-333.897-333.898 0-184.415 149.474-333.914 333.897-333.914s333.914 149.491 333.914 333.914c0 9.211-7.47 16.68-16.697 16.68z m-217.16 16.706c9.296 0 16.816 7.41 16.816 16.689a16.748 16.748 0 0 1-16.815 16.706h-83.36v100.049c0 9.295-7.394 16.815-16.69 16.815a16.731 16.731 0 0 1-16.688-16.815v-100.05h-83.36a16.799 16.799 0 0 1-11.882-4.85 16.782 16.782 0 0 1-4.934-11.847c0-9.21 7.512-16.689 16.815-16.689h83.36v-66.79h-83.36a16.782 16.782 0 0 1-11.88-4.833 16.816 16.816 0 0 1-4.935-11.847c0-9.227 7.512-16.706 16.815-16.706h63.756l-76.55-89.317a16.664 16.664 0 0 1 2.232-23.044 16.68 16.68 0 0 1 23.12 1.352l87.491 102.027 87.476-102.077c6.008-6.997 16.554-7.825 23.567-1.817s7.825 16.554 1.817 23.55l-76.583 89.318h63.806c9.262 0 16.782 7.41 16.782 16.706 0 9.21-7.512 16.689-16.815 16.689h-83.36v66.79h83.36z" fill="#F78E3D" p-id="1231"></path></svg>