<?xml version="1.0" standalone="no"?><!DOCTYPE svg PUBLIC "-//W3C//DTD SVG 1.1//EN" "http://www.w3.org/Graphics/SVG/1.1/DTD/svg11.dtd"><svg t="1555296918774" class="icon" style="" viewBox="0 0 1024 1024" version="1.1" xmlns="http://www.w3.org/2000/svg" p-id="3409" xmlns:xlink="http://www.w3.org/1999/xlink" width="200" height="200"><defs><style type="text/css"></style></defs><path d="M511.994 2.667C233.642 2.667 8 228.309 8 506.66s225.642 503.994 503.994 503.994 503.995-225.642 503.995-503.994S790.347 2.667 511.994 2.667z m-3.191 781.099a38.1 38.1 0 0 1-38.1-38.1 38.1 38.1 0 0 1 38.1-38.1 38.11 38.11 0 0 1 0 76.211zM667.73 444.005q-16.757 30.142-65.433 73.254c-21.803 19.309-35.964 33.56-42.707 42.708a94.934 94.934 0 0 0-15.004 31.648q-3.619 13.33-4.945 39.078a19.96 19.96 0 0 1-19.949 18.915h-25.231a20.005 20.005 0 0 1-19.994-19.96v-0.135q0-39.392 11.138-68.018 8.159-21.578 26.388-43.505 13.42-16.016 48.125-46.686t45.158-48.856a78.335 78.335 0 0 0 10.43-39.763q0-39.066-30.458-68.556t-74.738-29.559q-42.708 0-71.378 26.749-20.87 19.544-31.278 55.07a34.865 34.865 0 1 1-66.848-19.836q14.116-47.372 46.967-76.425 45.922-40.46 121.38-40.516 79.93 0 127.515 43.506t47.585 105.207a133.236 133.236 0 0 1-16.723 65.68z" fill="#bfbfbf" p-id="3410"></path></svg>