<?xml version="1.0" standalone="no"?><!DOCTYPE svg PUBLIC "-//W3C//DTD SVG 1.1//EN" "http://www.w3.org/Graphics/SVG/1.1/DTD/svg11.dtd"><svg t="1555294358226" class="icon" style="" viewBox="0 0 1024 1024" version="1.1" xmlns="http://www.w3.org/2000/svg" p-id="1170" xmlns:xlink="http://www.w3.org/1999/xlink" width="200" height="200"><defs><style type="text/css"></style></defs><path d="M512 0C230.4 0 0 230.4 0 512s230.4 512 512 512 512-230.4 512-512S793.6 0 512 0z m-38.4 230.4c0-21.333 17.067-38.4 38.4-38.4s38.4 17.067 38.4 38.4v366.933c0 21.334-17.067 38.4-38.4 38.4s-38.4-17.066-38.4-38.4V230.4zM512 793.6c-25.6 0-46.933-21.333-46.933-46.933S486.4 699.733 512 699.733s46.933 21.334 46.933 46.934c0 25.6-21.333 46.933-46.933 46.933z" fill="#FFC600" p-id="1171"></path></svg>